C:\Users\r0593348\3dpredictsim\Results\Batchsim_tmt_linear_v2\Pog_s1_tmt_aCst_d00_k250_ig24_pas_GRF.mot
nRows=10
nColumns=19

name C:\Users\r0593348\3dpredictsim\Results\Batchsim_tmt_linear_v2\Pog_s1_tmt_aCst_d00_k250_ig24_pas_GRF.mot
datacolumns 19
datarows 10
range 0.5458501948 0.6441032299
endheader
time 	ground_force_vx	ground_force_vy	ground_force_vz	ground_force_px	ground_force_py	ground_force_pz	1_ground_force_vx	1_ground_force_vy	1_ground_force_vz	1_ground_force_px	1_ground_force_py	1_ground_force_pz	ground_torque_x	ground_torque_y	ground_torque_z	1_ground_torque_x	1_ground_torque_y	1_ground_torque_z
        0.5458501948	      121.0923474318	      504.5108192022	       -1.4920428673	        0.3329969440	        0.0000000000	        0.0449154461	      -55.6340466816	       48.0711766185	      -21.4555955685	        0.8584150114	        0.0000000000	       -0.0430644569	        0.0000000000	        0.0000000000	        0.0000000000	        0.0000000000	        0.0000000000	        0.0000000000	
        0.5567671987	       91.2305440894	      407.2738331017	        4.4901374280	        0.3450625468	        0.0000000000	        0.0433828825	      -97.8847083428	      116.7365670317	      -63.7160815867	        0.8648492142	        0.0000000000	       -0.0411221777	        0.0000000000	        0.0000000000	        0.0000000000	        0.0000000000	        0.0000000000	        0.0000000000	
        0.5676842026	       53.1039376727	      297.1280002342	        7.0169622025	        0.3655014617	        0.0000000000	        0.0403139351	      -56.6569259071	      247.3734460809	      -32.8980510902	        0.8697528745	        0.0000000000	       -0.0387409317	        0.0000000000	        0.0000000000	        0.0000000000	        0.0000000000	        0.0000000000	        0.0000000000	
        0.5786012065	       20.8435184194	      202.3473986678	        7.0187104710	        0.3959944531	        0.0000000000	        0.0346931815	      -59.2919867651	      406.4108313257	       -4.6582471458	        0.8733371336	        0.0000000000	       -0.0385649186	        0.0000000000	        0.0000000000	        0.0000000000	        0.0000000000	        0.0000000000	        0.0000000000	
        0.5895182104	        1.9425093270	      148.8961358883	       11.0988682419	        0.4208506253	        0.0000000000	        0.0279420456	      -87.4408686474	      628.0676746340	        6.4659901598	        0.8825154366	        0.0000000000	       -0.0411693553	        0.0000000000	        0.0000000000	        0.0000000000	        0.0000000000	        0.0000000000	        0.0000000000	
        0.6004352143	       -2.3799009270	      123.0123781117	       12.9951722286	        0.4202983652	        0.0000000000	        0.0284201333	     -122.6975852330	      822.6483305383	       12.8415027787	        0.8907247570	        0.0000000000	       -0.0436696485	        0.0000000000	        0.0000000000	        0.0000000000	        0.0000000000	        0.0000000000	        0.0000000000	
        0.6113522182	       -2.9434008485	       86.9039985977	       13.4026459509	        0.4210035639	        0.0000000000	        0.0285796504	     -134.3066229041	      903.6962261692	       16.2719930360	        0.8964813678	        0.0000000000	       -0.0452668849	        0.0000000000	        0.0000000000	        0.0000000000	        0.0000000000	        0.0000000000	        0.0000000000	
        0.6222692221	       -5.2946042457	       46.9230032440	       11.1936049115	        0.4215181815	        0.0000000000	        0.0287543477	     -129.2622123621	      899.1478260611	       15.2310112280	        0.9006006425	        0.0000000000	       -0.0463052720	        0.0000000000	        0.0000000000	        0.0000000000	        0.0000000000	        0.0000000000	        0.0000000000	
        0.6331862260	       -5.4689190703	        9.1280303374	        2.7768599116	        0.0000000000	        0.0000000000	        0.0000000000	     -118.1308175399	      858.9018140291	       14.9843722611	        0.9043091689	        0.0000000000	       -0.0470908134	        0.0000000000	        0.0000000000	        0.0000000000	        0.0000000000	        0.0000000000	        0.0000000000	
        0.6441032299	        0.0006030792	       -0.0005430565	       -0.0000174805	        0.0000000000	        0.0000000000	        0.0000000000	     -104.6216510626	      821.0143570248	       15.0139120655	        0.9081650200	        0.0000000000	       -0.0477479828	        0.0000000000	        0.0000000000	        0.0000000000	        0.0000000000	        0.0000000000	        0.0000000000	
